<?xml version="1.0" encoding="utf-8"?>
<!-- Generator: Adobe Illustrator 26.0.3, SVG Export Plug-In . SVG Version: 6.00 Build 0)  -->
<svg version="1.1" id="Layer_1" xmlns="http://www.w3.org/2000/svg" xmlns:xlink="http://www.w3.org/1999/xlink" x="0px" y="0px"
	 viewBox="0 0 1110 816" style="enable-background:new 0 0 1110 816;" xml:space="preserve">
<style type="text/css">
	.st0{fill:#231F20;}
	.st1{fill:#FFFFFF;}
</style>
<rect x="-33.5" y="-22.6" class="st0" width="1179.8" height="865"/>
<g id="_1-3">
	<path class="st1" d="M924.4,523.3H757.7c-17.7,0-32-14.3-32-32V324.7c0-17.7,14.3-32,32-32h166.6c17.7,0,32,14.3,32,32v166.6
		C956.4,509,942.1,523.3,924.4,523.3z"/>
	<circle class="st0" cx="841.1" cy="408" r="29.3"/>
	<path class="st1" d="M638.3,523.3H471.7c-17.7,0-32-14.3-32-32V324.7c0-17.7,14.3-32,32-32h166.6c17.7,0,32,14.3,32,32v166.6
		C670.3,509,656,523.3,638.3,523.3z"/>
	<circle class="st0" cx="510.5" cy="364.6" r="29.3"/>
	<circle class="st0" cx="599.5" cy="453.6" r="29.3"/>
	<path class="st1" d="M352.3,523.3H185.6c-17.7,0-32-14.3-32-32V324.7c0-17.7,14.3-32,32-32h166.6c17.7,0,32,14.3,32,32v166.6
		C384.3,509,369.9,523.3,352.3,523.3z"/>
	<circle class="st0" cx="208.4" cy="348.9" r="29.3"/>
	<circle class="st0" cx="329.4" cy="469.9" r="29.3"/>
	<circle class="st0" cx="268.7" cy="409.2" r="29.3"/>
</g>
</svg>
