<?xml version="1.0" encoding="utf-8"?>
<!-- Generator: Adobe Illustrator 26.0.3, SVG Export Plug-In . SVG Version: 6.00 Build 0)  -->
<svg version="1.1" id="Layer_1" xmlns="http://www.w3.org/2000/svg" xmlns:xlink="http://www.w3.org/1999/xlink" x="0px" y="0px"
	 viewBox="0 0 1110 558.1" style="enable-background:new 0 0 1110 558.1;" xml:space="preserve">
<style type="text/css">
	.st0{fill:#0F0E0F;}
	.st1{fill:#FFFFFF;}
	.st2{fill:#231F20;}
</style>
<rect x="-33.5" y="-151.6" class="st0" width="1179.8" height="865"/>
<g id="_1-3">
	<path class="st1" d="M924.4,394.3H757.7c-17.7,0-32-14.3-32-32V195.7c0-17.7,14.3-32,32-32h166.6c17.7,0,32,14.3,32,32v166.6
		C956.4,380,942.1,394.3,924.4,394.3z"/>
	<circle class="st2" cx="841.1" cy="279" r="29.3"/>
	<path class="st1" d="M638.3,394.3H471.7c-17.7,0-32-14.3-32-32V195.7c0-17.7,14.3-32,32-32h166.6c17.7,0,32,14.3,32,32v166.6
		C670.3,380,656,394.3,638.3,394.3z"/>
	<circle class="st2" cx="510.5" cy="235.6" r="29.3"/>
	<circle class="st2" cx="599.5" cy="324.6" r="29.3"/>
	<path class="st1" d="M352.3,394.3H185.6c-17.7,0-32-14.3-32-32V195.7c0-17.7,14.3-32,32-32h166.6c17.7,0,32,14.3,32,32v166.6
		C384.3,380,369.9,394.3,352.3,394.3z"/>
	<circle class="st2" cx="208.4" cy="219.9" r="29.3"/>
	<circle class="st2" cx="329.4" cy="340.9" r="29.3"/>
	<circle class="st2" cx="268.7" cy="280.2" r="29.3"/>
</g>
</svg>
